<?xml version="1.0" encoding="UTF-8"?>
<svg xmlns="http://www.w3.org/2000/svg" xmlns:xlink="http://www.w3.org/1999/xlink" width="200px" height="200px" viewBox="0 0 200 200" version="1.1">
<defs>
<linearGradient id="linear0" gradientUnits="userSpaceOnUse" x1="256" y1="78.199997" x2="256" y2="441.200012" gradientTransform="matrix(0.390625,0,0,0.390625,0,0)">
<stop offset="0" style="stop-color:rgb(0%,69.803922%,100%);stop-opacity:1;"/>
<stop offset="1" style="stop-color:rgb(0%,41.568627%,100%);stop-opacity:1;"/>
</linearGradient>
</defs>
<g id="surface1">
<path style=" stroke:none;fill-rule:nonzero;fill:rgb(100%,100%,100%);fill-opacity:1;" d="M 30 0 L 170 0 C 186.570312 0 200 13.429688 200 30 L 200 170 C 200 186.570312 186.570312 200 170 200 L 30 200 C 13.429688 200 0 186.570312 0 170 L 0 30 C 0 13.429688 13.429688 0 30 0 Z M 30 0 "/>
<path style=" stroke:none;fill-rule:nonzero;fill:url(#linear0);" d="M 100 30.546875 C 60 30.546875 28.984375 59.84375 28.984375 99.453125 C 28.984375 120.15625 37.460938 138.046875 51.25 150.390625 C 52.425781 151.421875 53.132812 152.890625 53.203125 154.453125 L 53.59375 167.070312 C 53.65625 168.957031 54.652344 170.6875 56.246094 171.695312 C 57.839844 172.707031 59.832031 172.859375 61.5625 172.109375 L 75.625 165.859375 C 76.832031 165.324219 78.183594 165.230469 79.453125 165.585938 C 86.148438 167.417969 93.058594 168.335938 100 168.320312 C 140 168.320312 171.015625 139.023438 171.015625 99.453125 C 171.015625 59.882812 140 30.546875 100 30.546875 Z M 100 30.546875 "/>
<path style=" stroke:none;fill-rule:nonzero;fill:rgb(100%,100%,100%);fill-opacity:1;" d="M 57.34375 119.570312 L 78.203125 86.484375 C 79.789062 83.960938 82.359375 82.214844 85.292969 81.675781 C 88.222656 81.132812 91.25 81.84375 93.632812 83.632812 L 110.234375 96.09375 C 111.746094 97.199219 113.800781 97.199219 115.3125 96.09375 L 137.773438 79.0625 C 140.742188 76.796875 144.648438 80.390625 142.65625 83.554688 L 121.796875 116.640625 C 120.210938 119.152344 117.644531 120.886719 114.726562 121.429688 C 111.804688 121.972656 108.789062 121.269531 106.40625 119.492188 L 89.804688 107.03125 C 88.277344 105.886719 86.175781 105.886719 84.648438 107.03125 L 62.226562 124.0625 C 59.257812 126.328125 55.351562 122.734375 57.34375 119.570312 Z M 57.34375 119.570312 "/>
</g>
</svg>
